<svg version="1.1" viewBox="0.0 0.0 960.0 540.0" fill="none" stroke="none" stroke-linecap="square" stroke-miterlimit="10" xmlns:xlink="http://www.w3.org/1999/xlink" xmlns="http://www.w3.org/2000/svg"><clipPath id="p.0"><path d="m0 0l960.0 0l0 540.0l-960.0 0l0 -540.0z" clip-rule="nonzero"/></clipPath><g clip-path="url(#p.0)"><path fill="#ffffff" d="m0 0l960.0 0l0 540.0l-960.0 0z" fill-rule="evenodd"/><path fill="#434343" d="m213.73228 270.0l0 0c0 -147.0556 119.21211 -266.26773 266.2677 -266.26773l0 0l0 0c70.61859 0 138.34485 28.053125 188.27972 77.98801c49.934875 49.93489 77.987976 117.66112 77.987976 188.27971l0 0l0 0c0 147.0556 -119.2121 266.2677 -266.2677 266.2677l0 0l0 0c-147.0556 0 -266.2677 -119.2121 -266.2677 -266.2677z" fill-rule="evenodd"/><path stroke="#000000" stroke-width="1.0" stroke-linejoin="round" stroke-linecap="butt" d="m213.73228 270.0l0 0c0 -147.0556 119.21211 -266.26773 266.2677 -266.26773l0 0l0 0c70.61859 0 138.34485 28.053125 188.27972 77.98801c49.934875 49.93489 77.987976 117.66112 77.987976 188.27971l0 0l0 0c0 147.0556 -119.2121 266.2677 -266.2677 266.2677l0 0l0 0c-147.0556 0 -266.2677 -119.2121 -266.2677 -266.2677z" fill-rule="evenodd"/><g filter="url(#shadowFilter-p.1)"><use xlink:href="#p.1" transform="matrix(1.0 0.0 0.0 1.0 11.80906272965881 13.584772703412073)"/></g><defs><filter id="shadowFilter-p.1" filterUnits="userSpaceOnUse"><feGaussianBlur in="SourceAlpha" stdDeviation="2.0" result="blur"/><feComponentTransfer in="blur" color-interpolation-filters="sRGB"><feFuncR type="linear" slope="0" intercept="0.0"/><feFuncG type="linear" slope="0" intercept="0.0"/><feFuncB type="linear" slope="0" intercept="0.0"/><feFuncA type="linear" slope="0.5" intercept="0"/></feComponentTransfer></filter></defs><g id="p.1"><path fill="#000000" fill-opacity="0.0" d="m325.33463 434.7021c-15.158966 0 -27.447723 -12.288757 -27.447723 -27.447723l0 -109.797485c0 -15.158936 -12.288788 -27.447723 -27.447723 -27.447723l0 0c15.158936 0 27.447723 -12.288757 27.447723 -27.447708l0 -109.79747l0 0c0 -15.158966 12.288757 -27.447723 27.447723 -27.447723l309.35873 0c7.279541 0 14.260986 2.8918 19.408447 8.039246c5.147461 5.1474533 8.039246 12.128883 8.039246 19.408478l0 109.79747c0 15.158951 12.288757 27.447708 27.447754 27.447708c-15.158997 0 -27.447754 12.288788 -27.447754 27.447723l0 109.797485c0 15.158966 -12.288757 27.447723 -27.447693 27.447723z" fill-rule="evenodd"/><path fill="#000000" fill-opacity="0.0" d="m325.33463 434.7021c-15.158966 0 -27.447723 -12.288757 -27.447723 -27.447723l0 -109.797485c0 -15.158936 -12.288788 -27.447723 -27.447723 -27.447723l0 0c15.158936 0 27.447723 -12.288757 27.447723 -27.447708l0 -109.79747l0 0c0 -15.158966 12.288757 -27.447723 27.447723 -27.447723m309.35873 0c7.279541 0 14.260986 2.8918 19.408447 8.039246c5.147461 5.1474533 8.039246 12.128883 8.039246 19.408478l0 109.79747c0 15.158951 12.288757 27.447708 27.447754 27.447708c-15.158997 0 -27.447754 12.288788 -27.447754 27.447723l0 109.797485c0 15.158966 -12.288757 27.447723 -27.447693 27.447723" fill-rule="evenodd"/><path stroke="#ffffff" stroke-width="24.0" stroke-linejoin="round" stroke-linecap="butt" d="m325.33463 434.7021c-15.158966 0 -27.447723 -12.288757 -27.447723 -27.447723l0 -109.797485c0 -15.158936 -12.288788 -27.447723 -27.447723 -27.447723l0 0c15.158936 0 27.447723 -12.288757 27.447723 -27.447708l0 -109.79747l0 0c0 -15.158966 12.288757 -27.447723 27.447723 -27.447723m309.35873 0c7.279541 0 14.260986 2.8918 19.408447 8.039246c5.147461 5.1474533 8.039246 12.128883 8.039246 19.408478l0 109.79747c0 15.158951 12.288757 27.447708 27.447754 27.447708c-15.158997 0 -27.447754 12.288788 -27.447754 27.447723l0 109.797485c0 15.158966 -12.288757 27.447723 -27.447693 27.447723" fill-rule="evenodd"/><path fill="#ffffff" d="m515.63116 185.468q-1.140625 16.6875 -1.5625 32.234375q-0.421875 15.53125 -0.421875 23.734375q0 5.9375 0.28125 11.3125q0.28125 5.3593903 0.5625 9.04689l-6.4999695 0q-6.5 -26.57814 -15.6875 -41.843765q-9.1875 -15.265625 -19.5 -21.625q-10.3125 -6.359375 -20.484375 -6.359375l-0.28125 0l0 161.68752q0 11.59375 2.390625 17.25q2.40625 5.640625 9.1875 7.34375q6.78125 1.6875 19.796875 1.6875l0 5.65625q-9.90625 -0.28125 -26.71875 -0.5625q-16.8125 -0.28125 -35.1875 -0.28125q-17.53125 0 -33.078125 0.28125q-15.546875 0.28125 -25.15625 0.5625l0 -5.65625q13.0 0 19.78125 -1.6875q6.796875 -1.703125 9.1875 -7.34375q2.40625 -5.65625 2.40625 -17.25l0 -161.68752l-0.28125 0q-10.171875 0 -20.5 6.359375q-10.3125 6.359375 -19.359375 21.484375q-9.03125 15.125 -15.828125 41.98439l-6.5 0q0.578125 -3.6875 0.71875 -9.04689q0.140625 -5.375 0.140625 -11.3125q0 -8.203125 -0.4375 -23.734375q-0.421875 -15.546875 -1.546875 -32.234375q13.5625 0.28125 29.953125 0.578125q16.40625 0.28125 32.796875 0.28125q16.390625 0 29.671875 0q13.296875 0 29.6875 0q16.390625 0 32.78125 -0.28125q16.40625 -0.296875 29.68747 -0.578125zm111.936035 0l0 5.65625q-8.484375 0.28125 -12.875 2.125q-4.375 1.828125 -5.796875 6.78125q-1.40625 4.9375 -1.40625 15.40625l0 140.18752q0 10.1875 1.546875 15.28125q1.5625 5.078125 5.796875 6.78125q4.25 1.6875 12.734375 2.25l0 5.65625q-8.203125 -0.5625 -21.0625 -0.703125q-12.859375 -0.140625 -26.140625 -0.140625q-15.265625 0 -28.703064 0.140625q-13.421875 0.140625 -21.609375 0.703125l0 -5.65625q8.75 -0.5625 12.984375 -2.25q4.25 -1.703125 5.65625 -6.78125q1.421875 -5.09375 1.421875 -15.28125l0 -140.18752q0 -10.46875 -1.421875 -15.40625q-1.40625 -4.953125 -5.796875 -6.78125q-4.375 -1.84375 -12.84375 -2.125l0 -5.65625q8.1875 0.28125 21.609375 0.578125q13.437439 0.28125 28.703064 0.28125q13.28125 0 26.140625 -0.28125q12.859375 -0.296875 21.0625 -0.578125z" fill-rule="nonzero"/></g></g></svg>